<?xml version="1.0" encoding="UTF-8" standalone="no"?>
<svg
   xmlns:dc="http://purl.org/dc/elements/1.1/"
   xmlns:cc="http://creativecommons.org/ns#"
   xmlns:rdf="http://www.w3.org/1999/02/22-rdf-syntax-ns#"
   xmlns:svg="http://www.w3.org/2000/svg"
   xmlns="http://www.w3.org/2000/svg"
   xmlns:sodipodi="http://sodipodi.sourceforge.net/DTD/sodipodi-0.dtd"
   xmlns:inkscape="http://www.inkscape.org/namespaces/inkscape"
   id="svg3821"
   sodipodi:docname="rugby471-Tango-Style-Red-Jelly.svg"
   inkscape:export-filename="jelly.png"
   viewBox="0 0 55.37059 39.815071"
   sodipodi:version="0.32"
   inkscape:export-xdpi="90"
   version="1.0"
   inkscape:output_extension="org.inkscape.output.svg.inkscape"
   inkscape:export-ydpi="90"
   inkscape:version="1.0.2 (e86c870879, 2021-01-15)"
   width="55.37059"
   height="39.815071">
  <defs
     id="defs20">
    <filter
       style="color-interpolation-filters:sRGB"
       inkscape:label="Color Shift"
       id="filter1583">
      <feColorMatrix
         type="hueRotate"
         values="205"
         result="color1"
         id="feColorMatrix1579" />
      <feColorMatrix
         type="saturate"
         values="0.831172"
         result="color2"
         id="feColorMatrix1581" />
    </filter>
  </defs>
  <sodipodi:namedview
     id="base"
     bordercolor="#666666"
     inkscape:pageshadow="2"
     guidetolerance="10"
     pagecolor="#ffffff"
     gridtolerance="10000"
     inkscape:zoom="7.9195959"
     objecttolerance="10"
     showgrid="false"
     borderopacity="1.0"
     inkscape:current-layer="layer1"
     inkscape:cx="44.195326"
     inkscape:cy="23.679162"
     showguides="true"
     inkscape:guide-bbox="true"
     inkscape:pageopacity="0.0"
     inkscape:document-units="px"
     inkscape:document-rotation="0"
     inkscape:window-width="1280"
     inkscape:window-height="959"
     inkscape:window-x="0"
     inkscape:window-y="0"
     inkscape:window-maximized="1"
     fit-margin-top="0"
     fit-margin-left="0"
     fit-margin-right="0"
     fit-margin-bottom="0" />
  <g
     id="layer1"
     inkscape:label="Layer 1"
     inkscape:groupmode="layer"
     transform="translate(3.7393826,-3.8323511)">
    <g
       id="g4524"
       transform="matrix(0.19162,0,0,0.19162,-45.662,-70.664)"
       style="filter:url(#filter1583)">
      <path
         id="path3856"
         sodipodi:nodetypes="cccc"
         style="fill:#ef2929;fill-rule:evenodd;stroke:#a40000;stroke-width:7"
         d="m 311.43,413.79 c 20,-14.78 37.82,2.79 37.86,16.07 l -37.33,-7.68 z" />
      <path
         id="path3858"
         sodipodi:nodetypes="ccccc"
         style="fill:#ef2929;fill-rule:evenodd;stroke:#a40000;stroke-width:7"
         d="m 339.64,411.83 c 13.17,-10.52 33.1,-4.48 37.5,1.43 l -0.71,26.42 -35.54,-1.25 z" />
      <path
         id="path3860"
         sodipodi:nodetypes="cccc"
         style="fill:#ef2929;fill-rule:evenodd;stroke:#a40000;stroke-width:7"
         d="M 406.43,416.47 C 383.78,396.1 364.29,423.71 365,430.04 l 30.71,11.25 z" />
      <path
         id="path3844"
         sodipodi:nodetypes="cccscc"
         style="fill:#ef2929;fill-rule:evenodd;stroke:#a40000;stroke-width:7"
         d="m 310.71,414.51 c -51.64,-7.11 -66.49,108.8 -67.85,132.5 7.47,11.86 20.92,13.78 33.93,16.42 -2.92,-1.9 -3.57,-7.14 -2.21,-15.36 3.68,-22.35 21.83,-119.51 50.42,-125.35 -3.08,-3.48 -6.96,-6.62 -14.29,-8.21 z" />
      <path
         id="path3848"
         sodipodi:nodetypes="ccscccc"
         style="fill:#ef2929;fill-rule:evenodd;stroke:#a40000;stroke-width:7"
         d="m 323.93,423.43 c 10.4,0.4 20.94,0.36 28.57,10 -3.97,4.4 -9.08,8.17 -10.22,13.44 -9.77,45.29 -21.13,109.66 -15.14,120.14 -21.9,8.88 -39.64,9.07 -51.07,-3.93 -3.12,-2.84 -2.76,-9.14 -2.14,-15.72 12.92,-53.03 23.41,-113.71 50,-123.93 z" />
      <path
         id="path3850"
         sodipodi:nodetypes="ccccsc"
         style="fill:#ef2929;fill-rule:evenodd;stroke:#a40000;stroke-width:7"
         d="m 348.21,437.01 c 8.86,-10.78 33.91,-6.74 35.36,0 19.67,52.54 25.46,118.18 23.93,132.14 -21.34,13.51 -58.3,13.39 -81.43,0 -0.8,-32.83 7.66,-88.69 15.27,-119.68 1.42,-5.78 4.4,-9.88 6.87,-12.46 z" />
      <path
         id="path3852"
         sodipodi:nodetypes="ccscccc"
         style="fill:#ef2929;fill-rule:evenodd;stroke:#a40000;stroke-width:7"
         d="m 404.22,426.65 c -8.62,-2.11 -18.79,-4.29 -26.42,5.36 3.96,4.39 9.07,8.16 10.21,13.43 9.77,45.3 24.71,111.8 18.71,122.28 22.26,7.1 38.93,2.29 47.5,-6.07 3.12,-2.83 0.27,-9.14 -0.35,-15.72 C 440.94,492.9 430.81,436.87 404.22,426.65 Z" />
      <path
         id="path3854"
         sodipodi:nodetypes="csccscc"
         style="fill:#ef2929;fill-rule:evenodd;stroke:#a40000;stroke-width:7"
         d="m 410,415.93 c 9.89,-2.53 25.33,4.89 27.98,9.15 24.11,38.67 42.51,94.02 45.59,114.43 1.45,13.29 -14.85,19.49 -27.86,22.14 2.92,-1.9 -0.05,-10.24 -2.43,-18.23 -7.61,-25.56 -18.27,-114.86 -57.57,-119.27 3.38,-3.36 6.73,-6.72 14.29,-8.22 z" />
      <path
         id="path4516"
         style="opacity:0.45726;fill:none;stroke:#ffffff;stroke-width:7"
         sodipodi:type="inkscape:offset"
         d="m 306.02148,421.1875 c -9.28871,0.0702 -17.0399,5.24616 -24.32031,14.89258 -7.2804,9.64642 -13.38622,23.46536 -18.0625,38.16211 -8.87164,27.88204 -12.67454,58.46081 -13.58008,70.73047 2.60061,3.33185 5.81939,5.44846 10.05079,7.10742 1.94642,0.76311 4.20401,1.34032 6.47851,1.91601 0.0148,-2.47784 0.15736,-4.92269 0.38086,-7.28125 a 7.0007,7.0007 0 0 1 0.16797,-0.99804 c 1.38479,-5.68275 2.74789,-11.51041 4.10937,-17.33985 l -0.0527,0.25 c 3.26515,-16.70763 8.19818,-38.5025 15.60156,-60.26953 0.52521,-1.6198 1.03561,-2.91684 1.42383,-4.05469 a 7.0007,7.0007 0 0 1 0.0332,-0.0976 c 1.29941,-3.63209 2.60722,-7.43001 4.15625,-11.13672 0.003,-0.007 0.005,-0.013 0.008,-0.0195 0.81132,-1.98567 1.65661,-4.0596 2.60546,-6.11133 1.32268,-2.86006 2.70319,-5.60228 4.19141,-8.21289 0.21464,-0.38541 0.39537,-0.69413 0.51367,-0.90234 a 7.0007,7.0007 0 0 1 0.0488,-0.084 c 0.74212,-1.2644 1.50259,-2.4822 2.28711,-3.66601 2.9104,-4.58504 6.08529,-8.7407 9.75195,-11.9961 -0.7219,-0.22773 -1.42618,-0.4578 -2.31054,-0.6582 -1.19181,-0.15182 -2.36863,-0.23889 -3.48243,-0.23047 z m 111.16993,1.52344 c -2.13534,-0.29329 -3.96484,-0.27282 -5.22266,0.008 10.18163,6.07776 17.26083,17.22648 23.08008,30.46875 10.68982,23.0414 16.57852,51.53091 20.91992,71.35938 0.004,0.015 0.006,0.0299 0.01,0.0449 0.004,0.0203 0.0112,0.0461 0.0156,0.0664 1.31327,5.55822 2.62218,11.03446 3.9668,16.60547 a 7.0007,7.0007 0 0 1 0.0586,0.28321 c 1.04724,3.50869 2.21924,7.23456 3.03906,10.87109 3.10231,-1.06083 5.99507,-2.30476 8.21875,-3.73438 4.22146,-2.71398 5.69204,-4.67618 5.32422,-8.33007 -2.82457,-18.34134 -21.26847,-74.21344 -44.57226,-111.5879 0.46619,0.74768 -0.40965,-0.4169 -1.91016,-1.36914 -1.50051,-0.95224 -3.62042,-2.02691 -5.91406,-2.90039 -2.29364,-0.87347 -4.78331,-1.47881 -7.01367,-1.78515 z m -91.79688,7.80664 c -3.85628,1.82416 -7.79468,5.47607 -11.60156,11.19726 -0.75548,1.18869 -1.38106,2.11968 -1.89453,3.02344 a 7.0007,7.0007 0 0 1 -0.0488,0.0859 c -0.10663,0.18167 -0.25807,0.45421 -0.43555,0.76562 -1.26975,2.29127 -2.50928,4.68984 -3.68945,7.23243 -0.74167,1.59785 -1.51705,3.53691 -2.36914,5.57617 -0.002,0.005 -0.004,0.0121 -0.006,0.0176 -1.33861,3.27692 -2.63482,6.75421 -3.88086,10.40625 a 7.0007,7.0007 0 0 1 -0.0332,0.0976 c -0.46462,1.29867 -0.91726,2.56744 -1.34766,3.83008 -5.60217,17.3678 -10.35312,38.02293 -15.18555,58.71484 -1.32252,6.76171 -2.91133,14.56691 -3.43359,17.73633 -0.60852,3.69292 -0.66685,6.50361 -0.46484,7.95117 0.0875,0.62725 0.15082,0.77295 0.1582,0.82618 a 7.0007,7.0007 0 0 1 1.52344,1.70507 c 4.16844,4.11717 8.89752,6.12764 15.22656,6.50391 5.79611,0.34458 12.94783,-0.95568 21.01953,-3.70508 -0.67233,-5.50515 -0.41269,-12.1062 0.29688,-20.23242 0.81448,-9.32773 2.28972,-20.31479 4.11132,-31.97266 l 0.008,-0.0547 c 3.02365,-23.02508 7.14704,-45.93444 11.19922,-62.42383 0.76001,-3.0927 1.91068,-5.73798 3.0957,-7.94922 1.34741,-2.51425 2.85473,-4.54514 4.37109,-6.3125 -1.38024,-0.75689 -2.8106,-1.35898 -4.48242,-1.78516 -3.36714,-0.85834 -7.56166,-1.05781 -12.13672,-1.23437 z m 65.73242,1.38867 c -0.72763,0.0675 -1.30293,0.35152 -1.94726,0.50391 0.44231,0.81759 0.8273,1.71115 1.08789,2.76562 0.02,0.0246 0.0385,0.0535 0.0586,0.0781 l -0.20703,-0.70703 c 0.16334,0.4364 0.1803,0.52093 0.26758,0.78906 1.86054,2.30473 3.67546,5.01195 4.45508,8.625 1.0593,4.90925 2.27987,10.6078 3.42382,15.90234 7.4483,26.30453 12.05363,53.11515 14.41211,74.00586 a 7.0007,7.0007 0 0 1 0.0274,0.16797 c 1.74082,11.74531 2.80276,21.07889 2.14648,28.53711 16.45097,3.71072 27.88854,-0.14 33.7461,-5.32813 -0.005,-0.28571 0.0171,-0.39966 -0.0762,-1.04492 -0.27147,-1.87827 -1.01189,-5.08153 -1.44726,-8.60547 v -0.002 c -0.22094,-0.90678 -0.41028,-1.73659 -0.59766,-2.51172 a 7.0007,7.0007 0 0 1 -0.0703,-0.33984 c -1.30971,-4.51607 -2.63274,-10.44369 -4.08789,-17.08789 l 0.0254,0.11132 c -6.13623,-25.97435 -12.26246,-51.04057 -20.06641,-68.83984 -5.91004,-12.69217 -13.1868,-21.97827 -20.85742,-25.70898 -3.8463,-0.90648 -7.47723,-1.57161 -10.29297,-1.31055 z m -47.96289,0.25195 -0.35156,0.39453 c 0.0407,-0.0495 0.0918,-0.0819 0.13281,-0.13085 0.0734,-0.0783 0.14539,-0.18709 0.21875,-0.26368 z m 22.67188,5.47266 c -3.56744,0.0426 -7.04973,0.63495 -9.39063,1.80078 -2.94602,3.1225 -5.61211,5.6375 -6.63672,7.33789 -0.39719,0.65917 -0.60043,1.18756 -0.68554,1.58203 -4.26383,19.7603 -8.63391,42.9017 -11.90821,63.8125 -2.41089,18.38485 -3.9771,36.51489 -4.0625,50.96485 0.0146,0.0616 0.19038,0.58932 0.0801,0.39648 a 7.0007,7.0007 0 0 1 0.66602,1.58984 c 19.47627,8.97488 48.72372,8.84224 66.3789,-0.13476 a 7.0007,7.0007 0 0 1 0.33985,-0.68945 c 0.10247,-5.87636 -0.3617,-15.61403 -1.78321,-28.34375 a 7.0007,7.0007 0 0 1 -0.008,-0.043 c -3.10659,-20.89497 -8.84706,-48.08988 -14.17383,-72.7461 -2.03154,-7.13656 -4.26817,-14.12779 -6.72265,-20.91992 -0.97678,-1.04404 -2.13069,-2.23635 -3.35157,-3.49023 -2.26961,-0.70688 -5.41012,-1.15699 -8.74218,-1.11719 z m -95.0293,130.05469 0.55078,0.55859 c -0.0719,-0.0653 -0.10796,-0.14287 -0.17773,-0.20898 0.002,0.003 -0.004,-0.003 -0.002,0 0.88007,0.97531 0.72276,0.89438 -0.37109,-0.34961 z"
         inkscape:original="M 305.96875 414.1875 C 258.14145 414.5491 244.16822 524.04298 242.84375 547 C 250.24143 558.74059 263.49551 560.73949 276.375 563.34375 C 276.27845 563.23681 276.15816 563.17129 276.0625 563.0625 C 272.94293 560.22966 273.3144 553.95048 273.9375 547.375 C 275.33277 541.64924 276.70072 535.79945 278.0625 529.96875 C 281.295 513.42818 286.1789 491.89269 293.4375 470.5625 C 293.88571 469.17362 294.38314 467.91251 294.84375 466.5625 C 296.16211 462.87745 297.44202 459.17681 298.875 455.75 C 299.69352 453.74689 300.51244 451.74013 301.375 449.875 C 302.64047 447.13864 303.94077 444.55969 305.3125 442.15625 C 305.47578 441.86183 305.64806 441.57067 305.8125 441.28125 C 306.50764 440.09689 307.21262 438.96618 307.9375 437.875 C 313.11774 429.70294 318.7959 423.98549 325 422.71875 C 321.9161 419.23487 318.04805 416.09703 310.71875 414.5 C 309.10476 414.27797 307.51157 414.17584 305.96875 414.1875 z M 307.9375 437.875 C 307.22316 439.0019 306.50648 440.05979 305.8125 441.28125 C 305.64573 441.56538 305.47761 441.86695 305.3125 442.15625 C 303.96675 444.58279 302.64167 447.14606 301.375 449.875 C 300.50872 451.74132 299.70366 453.76837 298.875 455.75 C 297.4755 459.17489 296.13162 462.78785 294.84375 466.5625 C 294.36956 467.88793 293.89663 469.21331 293.4375 470.5625 C 287.67977 488.40421 282.90168 509.24891 278.0625 529.96875 C 276.7426 536.72265 275.15346 544.47613 274.5625 548.0625 C 273.20827 556.28095 273.86856 561.5374 276.78125 563.4375 C 276.64473 563.40973 276.51161 563.37137 276.375 563.34375 C 287.62606 575.80622 304.87399 575.75618 326.09375 567.375 C 326.07648 566.21215 326.12088 564.90167 326.125 563.6875 C 324.42929 554.88665 326.64217 534.44521 330.28125 511.1875 C 333.27632 488.36644 337.38554 465.57578 341.34375 449.46875 C 341.93677 447.05561 342.82667 444.9958 343.8125 443.15625 C 345.18747 440.59057 346.77525 438.50701 348.21875 437 C 349.36001 435.61234 350.78143 434.48452 352.375 433.5625 C 352.41478 433.51881 352.46044 433.48131 352.5 433.4375 C 344.86937 423.79357 334.34377 423.82931 323.9375 423.4375 C 317.82261 425.78735 312.57458 430.89467 307.9375 437.875 z M 352.375 433.5625 C 349.42272 436.80464 345.8878 439.71216 343.8125 443.15625 C 343.11141 444.31975 342.56545 445.55789 342.28125 446.875 C 337.98094 466.80437 333.5825 490.08885 330.28125 511.1875 C 327.81032 530.01486 326.17607 548.6492 326.125 563.6875 C 326.38711 565.04785 326.70708 566.21471 327.15625 567 C 326.79515 567.14647 326.45258 567.23327 326.09375 567.375 C 326.10209 567.93676 326.04902 568.60715 326.0625 569.15625 C 349.18999 582.54629 386.15715 582.6658 407.5 569.15625 C 407.53097 568.87393 407.50633 568.26157 407.53125 567.9375 C 407.25329 567.85204 406.99848 567.80795 406.71875 567.71875 C 407.12081 567.01581 407.4035 566.02805 407.625 564.84375 C 407.76126 558.46428 407.26299 548.29521 405.78125 535.0625 C 407.76642 548.45644 408.67358 559.23728 407.625 564.84375 C 407.60194 565.92339 407.59453 567.11475 407.53125 567.9375 C 429.36799 574.65106 445.75123 569.90892 454.21875 561.65625 C 457.3383 558.82343 454.4981 552.51298 453.875 545.9375 C 453.67107 545.10062 453.48387 544.27568 453.28125 543.4375 C 455.65821 551.42041 458.63143 559.75613 455.71875 561.65625 C 468.72638 559.01025 485.01491 552.79369 483.5625 539.5 C 480.48332 519.09835 462.07952 463.73118 437.96875 425.0625 C 435.31544 420.80715 419.88632 413.40524 410 415.9375 C 402.4442 417.43386 399.09336 420.80159 395.71875 424.15625 C 398.62964 424.48274 401.33049 425.39611 403.9375 426.59375 C 404.0287 426.61597 404.1279 426.63403 404.21875 426.65625 C 414.4341 430.58184 422.20808 441.34926 428.65625 456.03125 C 438.86438 477.98882 444.79386 506.23756 449.15625 526.15625 C 450.48095 531.76364 451.80005 537.28724 453.15625 542.90625 C 451.95307 538.77565 450.617 532.82602 449.15625 526.15625 C 443.00673 500.12565 436.89596 474.79243 428.65625 456.03125 C 422.29102 442.3397 414.25373 431.33293 403.9375 426.59375 C 395.37578 424.50764 385.33146 422.45771 377.78125 432 C 377.94855 432.18527 378.14152 432.34802 378.3125 432.53125 C 381.18547 433.70502 383.18482 435.24721 383.5625 437 C 383.75308 437.50919 383.90577 438.0509 384.09375 438.5625 C 385.94719 440.66808 387.44515 442.86611 388 445.4375 C 389.06172 450.35795 390.28749 456.08412 391.4375 461.40625 C 398.83609 487.43656 403.4271 514.20662 405.75 534.875 C 402.578 513.54011 396.78524 486.155 391.4375 461.40625 C 389.23507 453.65749 386.82567 445.99737 384.09375 438.5625 C 382.30989 436.53597 380.21714 434.57228 378.3125 432.53125 C 371.56889 429.7761 359.9316 429.19037 352.375 433.5625 z "
         inkscape:radius="-7" />
      <path
         id="path4518"
         sodipodi:nodetypes="cccccc"
         style="opacity:0.42308;fill:none;stroke:#ffffff;stroke-width:7;stroke-linejoin:round"
         d="m 347.14,420.4 -0.53,-5 c 7.72,-2.92 11.27,-3.29 19.64,-0.72 -4.26,2.17 -6.01,5.77 -6.96,9.83 l -5.18,1.07 z" />
      <path
         id="path4520"
         sodipodi:nodetypes="cccccc"
         style="opacity:0.42308;fill:none;stroke:#ffffff;stroke-width:4.7354;stroke-linejoin:round"
         d="m 326.02,415.24 -4.62,-1.19 c 6.77,-0.23 6.19,-0.04 12.68,1.47 -3.3,1.28 0.92,0.27 0.18,2.67 l -5.48,-0.49 z" />
      <path
         id="path4522"
         sodipodi:nodetypes="ccccc"
         style="opacity:0.42308;fill:none;stroke:#ffffff;stroke-width:5.4816;stroke-linejoin:round"
         d="m 376.68,425.55 -4.45,-0.38 c 6.5,-5.93 13.01,-12.6 23.94,-8.93 l -3.78,2.52 c -6.28,-0.83 -12.87,5 -15.71,6.79 z" />
    </g>
    <circle
       style="fill:#000000;fill-opacity:1;stroke:none;stroke-width:3.64724;stroke-linecap:round;stroke-linejoin:round;stroke-opacity:1;paint-order:markers fill stroke"
       id="path1591"
       cx="29.587482"
       cy="20.624722"
       r="2.8949952" />
    <circle
       style="fill:#000000;fill-opacity:1;stroke:none;stroke-width:3.64724;stroke-linecap:round;stroke-linejoin:round;stroke-opacity:1;paint-order:markers fill stroke"
       id="path1591-3"
       cx="16.134047"
       cy="20.50079"
       r="2.8949952" />
  </g>
  <metadata
     id="metadata17">
    <rdf:RDF>
      <cc:Work>
        <dc:format>image/svg+xml</dc:format>
        <dc:type
           rdf:resource="http://purl.org/dc/dcmitype/StillImage" />
        <cc:license
           rdf:resource="http://creativecommons.org/publicdomain/zero/1.0/" />
        <dc:publisher>
          <cc:Agent
             rdf:about="http://openclipart.org/">
            <dc:title>Openclipart</dc:title>
          </cc:Agent>
        </dc:publisher>
        <dc:title>Tango Style Red Jelly</dc:title>
        <dc:date>2009-03-29T10:38:27</dc:date>
        <dc:description>Tango Style Jelly</dc:description>
        <dc:source>https://openclipart.org/detail/23485/tango-style-red-jelly-by-rugby471</dc:source>
        <dc:creator>
          <cc:Agent>
            <dc:title>rugby471</dc:title>
          </cc:Agent>
        </dc:creator>
        <dc:subject>
          <rdf:Bag>
            <rdf:li>cartoon</rdf:li>
            <rdf:li>jello</rdf:li>
            <rdf:li>jelly</rdf:li>
            <rdf:li>red</rdf:li>
          </rdf:Bag>
        </dc:subject>
      </cc:Work>
      <cc:License
         rdf:about="http://creativecommons.org/publicdomain/zero/1.0/">
        <cc:permits
           rdf:resource="http://creativecommons.org/ns#Reproduction" />
        <cc:permits
           rdf:resource="http://creativecommons.org/ns#Distribution" />
        <cc:permits
           rdf:resource="http://creativecommons.org/ns#DerivativeWorks" />
      </cc:License>
    </rdf:RDF>
  </metadata>
</svg>
