<?xml version="1.0" encoding="UTF-8" standalone="no"?>
<svg
   xmlns:dc="http://purl.org/dc/elements/1.1/"
   xmlns:cc="http://creativecommons.org/ns#"
   xmlns:rdf="http://www.w3.org/1999/02/22-rdf-syntax-ns#"
   xmlns:svg="http://www.w3.org/2000/svg"
   xmlns="http://www.w3.org/2000/svg"
   xmlns:sodipodi="http://sodipodi.sourceforge.net/DTD/sodipodi-0.dtd"
   xmlns:inkscape="http://www.inkscape.org/namespaces/inkscape"
   width="36.559055mm"
   height="38.281685mm"
   viewBox="0 0 129.53996 135.64378"
   id="svg2"
   version="1.1"
   inkscape:version="1.0.2 (e86c870879, 2021-01-15)"
   sodipodi:docname="wonkytsai-u-turn.svg">
  <title
     id="title3438">Wonky Tsai's U-Turn</title>
  <defs
     id="defs4" />
  <sodipodi:namedview
     id="base"
     pagecolor="#ffffff"
     bordercolor="#666666"
     borderopacity="1.0"
     inkscape:pageopacity="0.0"
     inkscape:pageshadow="2"
     inkscape:zoom="2"
     inkscape:cx="90.954287"
     inkscape:cy="133.35868"
     inkscape:document-units="px"
     inkscape:current-layer="layer4"
     showgrid="false"
     inkscape:window-width="1280"
     inkscape:window-height="959"
     inkscape:window-x="0"
     inkscape:window-y="0"
     inkscape:window-maximized="1"
     showguides="false"
     fit-margin-top="0"
     fit-margin-left="0"
     fit-margin-right="0"
     fit-margin-bottom="0"
     inkscape:document-rotation="0" />
  <metadata
     id="metadata7">
    <rdf:RDF>
      <cc:Work
         rdf:about="">
        <dc:format>image/svg+xml</dc:format>
        <dc:type
           rdf:resource="http://purl.org/dc/dcmitype/StillImage" />
        <dc:title>Wonky Tsai's U-Turn</dc:title>
        <dc:rights>
          <cc:Agent>
            <dc:title>gracotw</dc:title>
          </cc:Agent>
        </dc:rights>
        <dc:creator>
          <cc:Agent>
            <dc:title>gracotw</dc:title>
          </cc:Agent>
        </dc:creator>
        <dc:subject>
          <rdf:Bag>
            <rdf:li>taiwan</rdf:li>
          </rdf:Bag>
        </dc:subject>
        <cc:license
           rdf:resource="http://creativecommons.org/publicdomain/zero/1.0/" />
      </cc:Work>
      <cc:License
         rdf:about="http://creativecommons.org/publicdomain/zero/1.0/">
        <cc:permits
           rdf:resource="http://creativecommons.org/ns#Reproduction" />
        <cc:permits
           rdf:resource="http://creativecommons.org/ns#Distribution" />
        <cc:permits
           rdf:resource="http://creativecommons.org/ns#DerivativeWorks" />
      </cc:License>
    </rdf:RDF>
  </metadata>
  <g
     inkscape:label="Layer 1"
     inkscape:groupmode="layer"
     id="layer1"
     style="display:inline"
     transform="translate(695.42511,-327.63273)" />
  <g
     inkscape:groupmode="layer"
     id="layer7"
     inkscape:label="road"
     transform="translate(695.42511,-327.63273)"
     style="display:inline" />
  <g
     inkscape:groupmode="layer"
     id="layer4"
     inkscape:label="back hair"
     style="display:inline"
     transform="translate(695.42511,-327.63273)">
    <rect
       style="fill:#ffffff;fill-opacity:1;stroke-width:3.41929;stroke-linecap:round;stroke-linejoin:round;paint-order:markers fill stroke"
       id="rect936"
       width="129.53996"
       height="135.36023"
       x="-695.42511"
       y="327.66757" />
    <path
       style="display:inline;fill:#a0a0a0;fill-opacity:1;fill-rule:evenodd;stroke:#000000;stroke-width:0.38547px;stroke-linecap:butt;stroke-linejoin:miter;stroke-opacity:1"
       d="m -677.61368,444.73765 c -1.0326,-0.77094 -1.7409,-1.54188 -4.2402,-2.31282 l -6.1675,-19.08075 c 0.4511,-4.20134 0.9009,-8.40294 -1.1564,-13.10596 -4.0366,-7.72322 -7.2108,-17.23799 -5.0111,-26.21194 2.6905,-10.97689 10.1021,-18.4367 14.8405,-26.40468 14.4972,-13.6465 29.9834,-20.37012 45.4855,-26.98287 3.1527,-3.30985 8.5621,-3.94432 17.3461,-0.57821 3.6866,1.27527 7.3419,2.64441 10.0222,6.93846 2.1422,3.17915 3.8101,7.06964 7.9021,7.32392 11.1147,13.32002 20.2582,27.29711 23.7064,43.17261 5.3024,19.46996 9.5584,39.07071 6.7457,59.55505 -4.046,11.50192 -15.8451,11.37428 -24.4773,15.997 -6.7996,-5.28879 -15.6794,-6.41717 -24.4773,-7.70939 l -2.5056,-2.6983 0.771,-21.00809 15.226,-21.0081 c 4.9064,-21.00809 2.9424,-42.01619 -1.3491,-63.02429 -12.3869,-6.64197 -21.386,-20.05955 -47.4128,0.5782 l -12.9132,10.02222 c -13.5615,6.56568 -11.6422,16.49677 -14.2624,25.441 -5.0364,15.35515 8e-4,29.11977 4.4329,42.97986 z"
       id="path4288"
       inkscape:connector-curvature="0"
       sodipodi:nodetypes="ccccscccccccccccccccccc" />
  </g>
  <g
     inkscape:groupmode="layer"
     id="layer2"
     inkscape:label="head"
     style="display:inline"
     transform="translate(695.42511,-327.63273)">
    <path
       style="display:inline;fill:#ffffff;fill-opacity:1;fill-rule:evenodd;stroke:#000000;stroke-width:0.38547px;stroke-linecap:butt;stroke-linejoin:miter;stroke-opacity:1"
       d="m -627.61278,336.58583 c -11.1759,0.51718 -19.5904,4.29775 -25.0555,11.56408 -8.1526,0.77711 -11.7708,4.46914 -12.6654,9.91208 -14.431,6.41948 -12.9689,16.50658 -14.5928,25.88154 -5.3507,17.52787 -0.6646,29.03364 4.13,40.47431 0.8691,8.93625 -2.1936,13.96914 -1.9412,22.99456 20.44094,1.01597 39.0282,-1.0623 60.863,7.84301 l -2.478,-2.47802 0.5507,-21.47616 c 7.5361,-7.23887 11.102,-13.91054 15.1434,-20.65016 5.3069,-13.85855 2.6418,-27.7171 2.7534,-41.57566 -1.5074,-7.98473 -0.3069,-15.96946 -5.5067,-23.95419 -6.0928,-6.41716 -13.5753,-7.73876 -21.2009,-8.53539 z"
       id="path3403"
       inkscape:connector-curvature="0"
       sodipodi:nodetypes="ccccccccccccc" />
  </g>
  <g
     inkscape:groupmode="layer"
     id="layer3"
     inkscape:label="face"
     style="display:inline"
     transform="translate(695.42511,-327.63273)">
    <path
       style="display:inline;fill:none;fill-rule:evenodd;stroke:#000000;stroke-width:0.38547px;stroke-linecap:butt;stroke-linejoin:miter;stroke-opacity:1"
       d="m -632.92173,359.83244 c 11.7921,-8.73193 13.4563,-0.50653 16.2162,5.51007 -4.7364,-4.2566 -4.2473,-7.82128 -15.6321,-5.51007 z"
       id="path3405"
       inkscape:connector-curvature="0"
       sodipodi:nodetypes="cccc" />
    <path
       style="display:inline;fill:none;fill-rule:evenodd;stroke:#000000;stroke-width:0.38547px;stroke-linecap:butt;stroke-linejoin:miter;stroke-opacity:1"
       d="m -650.05453,356.52268 c -4.2184,-6.70338 -8.4367,-6.33569 -12.655,-0.58407 5.2668,-3.9994 8.8942,-1.4409 12.655,0.58407 z"
       id="path3407"
       inkscape:connector-curvature="0"
       sodipodi:nodetypes="ccc" />
    <path
       style="display:inline;fill:none;fill-rule:evenodd;stroke:#000000;stroke-width:0.38547px;stroke-linecap:butt;stroke-linejoin:miter;stroke-opacity:1"
       d="m -659.39973,369.37233 c -0.7362,-5.40873 2.978,-6.36713 6.8142,-7.20359 2.3322,-3.71924 5.3687,-3.91768 8.177,-5.25667"
       id="path3409"
       inkscape:connector-curvature="0"
       sodipodi:nodetypes="ccc" />
    <path
       style="display:inline;fill:none;fill-rule:evenodd;stroke:#000000;stroke-width:0.38547px;stroke-linecap:butt;stroke-linejoin:miter;stroke-opacity:1"
       d="m -642.07223,370.92986 c 5.8842,2.37978 8.5853,1.57639 7.2036,-3.30976 -1.796,-1.29139 -3.1617,-2.00911 -6.4248,-5.25667 2.0244,-0.9182 2.5045,-2.69065 3.3097,-4.28321"
       id="path3411"
       inkscape:connector-curvature="0"
       sodipodi:nodetypes="cccc" />
    <path
       style="display:inline;fill:#000000;fill-opacity:1;fill-rule:evenodd;stroke:#000000;stroke-width:0.38547px;stroke-linecap:butt;stroke-linejoin:miter;stroke-opacity:1"
       d="m -657.06343,368.00949 c 2.6227,0.29016 4.1866,0.2274 5.2566,0 1.4332,-1.50436 -0.1414,-2.50742 -1.7522,-3.50445 -3.5216,0.83194 -3.5341,2.16518 -3.5044,3.50445 z"
       id="path3413"
       inkscape:connector-curvature="0"
       sodipodi:nodetypes="cccc" />
    <path
       style="display:inline;fill:#000000;fill-opacity:1;fill-rule:evenodd;stroke:#000000;stroke-width:0.38547px;stroke-linecap:butt;stroke-linejoin:miter;stroke-opacity:1"
       d="m -647.52363,368.00949 5.8408,2.53099 c -0.077,-1.61288 0.045,-3.25976 -2.3363,-4.47791 -1.358,-0.30041 -2.6582,-0.31138 -3.5045,1.94692 z"
       id="path3415"
       inkscape:connector-curvature="0"
       sodipodi:nodetypes="cccc" />
    <path
       style="display:inline;fill:none;fill-rule:evenodd;stroke:#000000;stroke-width:0.38547px;stroke-linecap:butt;stroke-linejoin:miter;stroke-opacity:1"
       d="m -668.35563,389.03618 c 0.8778,-3.846 0.6614,-7.6316 3.5045,-12.46027 4.0631,-5.51364 9.706,-5.791 14.6019,-4.4779 13.2895,3.56432 12.7734,12.61581 13.239,19.66384 -0.8978,3.03382 -2.5468,4.94099 -4.4779,6.42483 -5.6461,1.49574 -11.9817,0.44006 -16.9382,0 -4.7027,-0.41753 -10.728,-2.76625 -9.9293,-9.1505 z"
       id="path3417"
       inkscape:connector-curvature="0"
       sodipodi:nodetypes="ccsccsc" />
    <path
       style="display:inline;fill:none;fill-rule:evenodd;stroke:#000000;stroke-width:0.38547px;stroke-linecap:butt;stroke-linejoin:miter;stroke-opacity:1"
       d="m -668.01483,387.1866 4.5265,-8.27439 c 3.1013,-5.66895 8.4408,-4.62437 13.0444,-3.11506 10.2654,3.36555 11.1672,9.80979 13.531,16.01337 -0.9336,2.82388 -2.5396,5.142 -5.1593,6.6682 -7.9377,-4.58505 -16.5487,-4.32283 -25.1152,-4.38056 -1.7868,-2.3878 -1.3243,-4.65063 -0.8274,-6.91156 z"
       id="path3419"
       inkscape:connector-curvature="0"
       sodipodi:nodetypes="csscccc" />
    <path
       style="display:inline;fill:none;fill-rule:evenodd;stroke:#000000;stroke-width:0.38547px;stroke-linecap:butt;stroke-linejoin:miter;stroke-opacity:1"
       d="m -677.35033,407.6487 c 3.6806,10.77098 27.158,15.1316 38.2958,4.76994"
       id="path3421"
       inkscape:connector-curvature="0"
       sodipodi:nodetypes="cc" />
    <path
       style="display:inline;fill:none;fill-rule:evenodd;stroke:#000000;stroke-width:0.38547px;stroke-linecap:butt;stroke-linejoin:miter;stroke-opacity:1"
       d="m -629.92343,376.84848 c -5.2338,12.84896 -2.8988,20.49285 -13.2196,29.30109"
       id="path3423"
       inkscape:connector-curvature="0"
       sodipodi:nodetypes="cc" />
    <path
       style="display:inline;fill:none;fill-rule:evenodd;stroke:#000000;stroke-width:0.38547px;stroke-linecap:butt;stroke-linejoin:miter;stroke-opacity:1"
       d="m -659.49713,366.21832 c -7.5499,6.17234 -13.4922,13.41633 -12.4018,25.34884"
       id="path3425"
       inkscape:connector-curvature="0"
       sodipodi:nodetypes="cc" />
    <path
       style="display:inline;fill:none;fill-rule:evenodd;stroke:#000000;stroke-width:0.38547px;stroke-linecap:butt;stroke-linejoin:miter;stroke-opacity:1"
       d="m -662.38773,388.94084 c -0.3734,0.15384 -0.5325,0.66501 -1.2527,0.24092 -2.1793,-1.03667 -1.7697,-4.11789 -0.3855,-5.39658 1.9182,0.18493 3.3167,0.4738 3.9511,0.91549 0.1757,0.73882 0.6984,1.47763 -0.3373,2.21645 0.6792,0.23525 1.3771,0.90975 1.2528,1.7828 -1.0762,1.26042 -2.1523,1.02599 -3.2284,0.24092 z"
       id="path3446"
       inkscape:connector-curvature="0"
       sodipodi:nodetypes="ccccccc" />
    <path
       style="display:inline;fill:none;fill-rule:evenodd;stroke:#000000;stroke-width:0.38547px;stroke-linecap:butt;stroke-linejoin:miter;stroke-opacity:1"
       d="m -663.20683,380.55687 c -1.2297,0.75012 -1.0089,2.02769 -0.8673,3.2765 1.7602,0.20284 2.9441,0.48802 3.8065,0.81912 0.7634,-1.07841 0.9856,-1.29814 1.2528,-1.7828 -0.18,-0.77729 -0.6877,-1.39078 -1.6382,-1.7828 z"
       id="path3450"
       inkscape:connector-curvature="0"
       sodipodi:nodetypes="cccccc" />
    <path
       style="display:inline;fill:none;fill-rule:evenodd;stroke:#000000;stroke-width:0.38547px;stroke-linecap:butt;stroke-linejoin:miter;stroke-opacity:1"
       d="m -660.46033,377.13583 c -0.1761,1.15876 -0.3797,2.2073 -0.4337,3.8547 l -2.4091,-0.24092 c 0.3873,-1.55477 1.4294,-2.70032 2.8428,-3.61378 z"
       id="path3452"
       inkscape:connector-curvature="0"
       sodipodi:nodetypes="cccc" />
    <path
       style="display:inline;fill:none;fill-rule:evenodd;stroke:#000000;stroke-width:0.38547px;stroke-linecap:butt;stroke-linejoin:miter;stroke-opacity:1"
       d="m -659.11123,376.75036 c -0.8792,0.33131 -1.1496,0.96706 -1.5418,1.54188 l -0.1446,2.79465 c 1.0335,0.17998 1.9217,-0.1482 2.6983,-0.8673 l 0.2409,-2.40919 c -0.2811,-0.38064 -0.3689,-0.79995 -1.2528,-1.06004 z"
       id="path3456"
       inkscape:connector-curvature="0"
       sodipodi:nodetypes="cccccc" />
    <path
       style="display:inline;fill:none;fill-rule:evenodd;stroke:#000000;stroke-width:0.38547px;stroke-linecap:butt;stroke-linejoin:miter;stroke-opacity:1"
       d="m -655.59383,375.83487 c -1.084,0.45376 -1.6297,1.17674 -2.2164,1.87917 l -0.1927,2.69828 c 1.463,-0.0971 2.5663,-0.0143 3.5174,0.14455 l 0.2891,-2.9392 z"
       id="path3458"
       inkscape:connector-curvature="0"
       sodipodi:nodetypes="cccccc" />
    <path
       style="display:inline;fill:none;fill-rule:evenodd;stroke:#000000;stroke-width:0.38547px;stroke-linecap:butt;stroke-linejoin:miter;stroke-opacity:1"
       d="m -650.87183,376.46126 c -1.0393,0.28219 -2.0389,0.5047 -3.3246,1.15641 l -0.1446,2.98739 3.1801,0.5782 0.771,-2.45737 c 0.3381,-0.838 -0.066,-1.55222 -0.4819,-2.26463 z"
       id="path3460"
       inkscape:connector-curvature="0"
       sodipodi:nodetypes="cccccc" />
    <path
       style="display:inline;fill:none;fill-rule:evenodd;stroke:#000000;stroke-width:0.38547px;stroke-linecap:butt;stroke-linejoin:miter;stroke-opacity:1"
       d="m -647.49893,377.90677 -2.6501,0.2891 -0.9637,2.93921 3.1802,1.54188 1.1564,-1.73462 z"
       id="path4262"
       inkscape:connector-curvature="0" />
    <path
       style="display:inline;fill:none;fill-rule:evenodd;stroke:#000000;stroke-width:0.38547px;stroke-linecap:butt;stroke-linejoin:miter;stroke-opacity:1"
       d="m -644.12603,379.97867 c -0.6444,-0.0775 -1.2317,-0.24043 -2.1201,0.0482 l -1.6864,2.79466 2.2164,2.31282 2.6019,-2.55374 c 0.2053,-1.09984 -0.327,-1.88358 -1.0118,-2.60192 z"
       id="path4264"
       inkscape:connector-curvature="0"
       sodipodi:nodetypes="cccccc" />
    <path
       style="display:inline;fill:none;fill-rule:evenodd;stroke:#000000;stroke-width:0.38547px;stroke-linecap:butt;stroke-linejoin:miter;stroke-opacity:1"
       d="m -646.10163,384.89341 0.048,2.02371 3.5656,-0.2891 1.8792,-2.89102 -3.3729,-0.24092 z"
       id="path4266"
       inkscape:connector-curvature="0" />
    <path
       style="display:inline;fill:none;fill-rule:evenodd;stroke:#000000;stroke-width:0.38547px;stroke-linecap:butt;stroke-linejoin:miter;stroke-opacity:1"
       d="m -644.17423,386.86894 0.2409,2.84284 1.6382,-0.43366 0.048,-1.25277 0.241,1.39733 2.2164,-0.14456 c 0.331,-0.88838 0.7754,-1.72811 0.2409,-2.98739 -1.4285,-0.60051 -3.0811,0.36674 -4.6256,0.57821 z"
       id="path4268"
       inkscape:connector-curvature="0"
       sodipodi:nodetypes="cccccccc" />
    <path
       style="display:inline;fill:none;fill-rule:evenodd;stroke:#000000;stroke-width:0.38547px;stroke-linecap:butt;stroke-linejoin:miter;stroke-opacity:1"
       d="m -643.45153,389.61541 1.4937,4.24017 c 0.7603,-0.19084 1.4065,-0.64783 1.7828,-1.73462 l 1.9756,0.72275 -0.9637,-4.38471 c -0.7841,1.13845 -2.8207,0.8155 -4.2884,1.15641 z"
       id="path4272"
       inkscape:connector-curvature="0"
       sodipodi:nodetypes="cccccc" />
    <path
       style="display:inline;fill:none;fill-rule:evenodd;stroke:#000000;stroke-width:0.38547px;stroke-linecap:butt;stroke-linejoin:miter;stroke-opacity:1"
       d="m -664.77813,393.91807 0.3407,-1.02214 h 1.3969 l 0.034,1.05621 z"
       id="path4274"
       inkscape:connector-curvature="0"
       sodipodi:nodetypes="ccccc" />
    <path
       style="display:inline;fill:none;fill-rule:evenodd;stroke:#000000;stroke-width:0.38547px;stroke-linecap:butt;stroke-linejoin:miter;stroke-opacity:1"
       d="m -663.00643,394.05436 0.2044,-2.18056 c 0.01,-0.33462 0.5723,-0.60774 1.3969,-0.85178 l 0.2726,3.10048 z"
       id="path4276"
       inkscape:connector-curvature="0"
       sodipodi:nodetypes="ccccc" />
    <path
       style="display:inline;fill:none;fill-rule:evenodd;stroke:#000000;stroke-width:0.38547px;stroke-linecap:butt;stroke-linejoin:miter;stroke-opacity:1"
       d="m -661.13253,394.19064 -0.034,-3.57747 2.3509,-0.0681 -0.1704,3.67968 z"
       id="path4278"
       inkscape:connector-curvature="0" />
    <path
       style="display:inline;fill:none;fill-rule:evenodd;stroke:#000000;stroke-width:0.38547px;stroke-linecap:butt;stroke-linejoin:miter;stroke-opacity:1"
       d="m -658.78163,390.68131 -0.2044,3.50933 2.419,0.13628 0.4429,-3.54339 z"
       id="path4280"
       inkscape:connector-curvature="0" />
    <path
       style="display:inline;fill:none;fill-rule:evenodd;stroke:#000000;stroke-width:0.38547px;stroke-linecap:butt;stroke-linejoin:miter;stroke-opacity:1"
       d="m -656.05593,391.26052 2.7938,0.27257 -0.7836,3.10047 -2.5553,-0.27257 z"
       id="path4282"
       inkscape:connector-curvature="0" />
    <path
       style="display:inline;fill:none;fill-rule:evenodd;stroke:#000000;stroke-width:0.38547px;stroke-linecap:butt;stroke-linejoin:miter;stroke-opacity:1"
       d="m -653.19393,391.6353 2.2827,0.81771 -0.6473,2.58941 -2.4872,-0.40886 z"
       id="path4284"
       inkscape:connector-curvature="0" />
    <path
       style="display:inline;fill:none;fill-rule:evenodd;stroke:#000000;stroke-width:0.38547px;stroke-linecap:butt;stroke-linejoin:miter;stroke-opacity:1"
       d="m -650.80903,392.65743 2.6916,1.26064 -0.2725,1.80576 -3.1346,-0.71549 z"
       id="path4286"
       inkscape:connector-curvature="0" />
    <path
       style="display:inline;fill:#000000;fill-opacity:1;fill-rule:evenodd;stroke:#000000;stroke-width:0.38547px;stroke-linecap:butt;stroke-linejoin:miter;stroke-opacity:1"
       d="m -652.26913,355.69408 c -1.3538,-3.07438 -3.5613,-3.44518 -6.4566,-1.63824 2.1522,-0.12719 4.3044,-0.91457 6.4566,1.63824 z"
       id="path3543"
       inkscape:connector-curvature="0"
       sodipodi:nodetypes="ccc" />
    <path
       style="display:inline;fill:none;fill-rule:evenodd;stroke:#000000;stroke-width:0.38547px;stroke-linecap:butt;stroke-linejoin:miter;stroke-opacity:1"
       d="m -616.61313,365.33082 3.3728,4.04743"
       id="path4345"
       inkscape:connector-curvature="0" />
    <path
       style="display:inline;fill:#000000;fill-opacity:1;fill-rule:evenodd;stroke:#000000;stroke-width:0.38547px;stroke-linecap:butt;stroke-linejoin:miter;stroke-opacity:1"
       d="m -628.08083,359.06694 c 2.3736,-1.06017 4.8083,-3.83017 6.9384,1.92735 -2.1496,-2.11134 -4.5367,-2.0856 -6.9384,-1.92735 z"
       id="path4347"
       inkscape:connector-curvature="0"
       sodipodi:nodetypes="ccc" />
  </g>
  <g
     inkscape:groupmode="layer"
     id="layer5"
     inkscape:label="glasses"
     style="display:inline"
     transform="translate(695.42511,-327.63273)">
    <path
       style="display:inline;fill:none;fill-rule:evenodd;stroke:#000000;stroke-width:0.38547px;stroke-linecap:butt;stroke-linejoin:miter;stroke-opacity:1"
       d="m -657.45285,345.63942 c -6.2314,-0.2485 -14.392,-1.14364 -14.7187,6.54164 -0.1484,3.49308 0.8512,6.73204 5.0426,7.35934 l 7.6319,1.36284 11.993,-3.95223 c 1.7038,-1.976 3.8666,-3.86952 0.1363,-8.38148 -1.9265,-0.63203 -3.0844,-2.65093 -10.0851,-2.93011 z"
       id="path3518"
       inkscape:connector-curvature="0"
       sodipodi:nodetypes="ssccccs" />
    <path
       style="display:inline;fill:none;fill-rule:evenodd;stroke:#000000;stroke-width:0.38547px;stroke-linecap:butt;stroke-linejoin:miter;stroke-opacity:1"
       d="m -625.28975,349.45538 c -6.6545,-0.25451 -10.2632,1.56765 -12.947,4.02038 0.4194,3.17996 0.2795,6.35992 2.0443,9.53989 4.9451,3.52306 12.7205,2.7064 20.3063,2.18054 1.7753,-2.20326 2.7294,-4.40652 3.6115,-6.60977 -2.0255,-4.49748 -4.7235,-8.57222 -13.0151,-9.13104 z"
       id="path3520"
       inkscape:connector-curvature="0"
       sodipodi:nodetypes="cccccc" />
    <path
       style="display:inline;fill:none;fill-rule:evenodd;stroke:#000000;stroke-width:0.38547px;stroke-linecap:butt;stroke-linejoin:miter;stroke-opacity:1"
       d="m -645.42695,352.03212 c 2.7715,-0.28273 5.6596,-0.75962 6.9384,1.44551"
       id="path3537"
       inkscape:connector-curvature="0"
       sodipodi:nodetypes="cc" />
    <path
       style="display:inline;fill:none;fill-rule:evenodd;stroke:#000000;stroke-width:0.38547px;stroke-linecap:butt;stroke-linejoin:miter;stroke-opacity:1"
       d="m -613.62575,356.56139 6.8421,2.89102 7.0348,16.28609"
       id="path3539"
       inkscape:connector-curvature="0" />
  </g>
  <g
     inkscape:groupmode="layer"
     id="layer6"
     inkscape:label="car"
     style="display:inline"
     transform="translate(695.42511,-327.63273)">
    <g
       id="g3467"
       transform="matrix(1.0941469,0,0,1.0941469,-172.34558,-540.65666)" />
  </g>
</svg>
