<?xml version="1.0" encoding="UTF-8" standalone="no"?>
<svg
   xmlns:dc="http://purl.org/dc/elements/1.1/"
   xmlns:cc="http://creativecommons.org/ns#"
   xmlns:rdf="http://www.w3.org/1999/02/22-rdf-syntax-ns#"
   xmlns:svg="http://www.w3.org/2000/svg"
   xmlns="http://www.w3.org/2000/svg"
   xmlns:sodipodi="http://sodipodi.sourceforge.net/DTD/sodipodi-0.dtd"
   xmlns:inkscape="http://www.inkscape.org/namespaces/inkscape"
   sodipodi:docname="wonkytsairactopaminepig.svg"
   inkscape:version="1.0.2 (e86c870879, 2021-01-15)"
   id="svg8"
   version="1.1"
   viewBox="0 0 91.033195 85.662795"
   height="85.662796mm"
   width="91.033195mm">
  <defs
     id="defs2" />
  <sodipodi:namedview
     fit-margin-bottom="0"
     fit-margin-right="0"
     fit-margin-left="0"
     fit-margin-top="0"
     inkscape:window-maximized="1"
     inkscape:window-y="0"
     inkscape:window-x="0"
     inkscape:window-height="959"
     inkscape:window-width="1280"
     showgrid="false"
     inkscape:document-rotation="0"
     inkscape:current-layer="layer8"
     inkscape:document-units="mm"
     inkscape:cy="210.53855"
     inkscape:cx="181.70373"
     inkscape:zoom="1.4142136"
     inkscape:pageshadow="2"
     inkscape:pageopacity="0.0"
     borderopacity="1.0"
     bordercolor="#666666"
     pagecolor="#ffffff"
     id="base" />
  <metadata
     id="metadata5">
    <rdf:RDF>
      <cc:Work
         rdf:about="">
        <dc:format>image/svg+xml</dc:format>
        <dc:type
           rdf:resource="http://purl.org/dc/dcmitype/StillImage" />
        <dc:title />
        <cc:license
           rdf:resource="http://creativecommons.org/publicdomain/zero/1.0/" />
      </cc:Work>
      <cc:License
         rdf:about="http://creativecommons.org/publicdomain/zero/1.0/">
        <cc:permits
           rdf:resource="http://creativecommons.org/ns#Reproduction" />
        <cc:permits
           rdf:resource="http://creativecommons.org/ns#Distribution" />
        <cc:permits
           rdf:resource="http://creativecommons.org/ns#DerivativeWorks" />
      </cc:License>
    </rdf:RDF>
  </metadata>
  <g
     transform="translate(-78.299817,-99.497462)"
     style="display:inline"
     id="layer1"
     inkscape:groupmode="layer"
     inkscape:label="Layer 1" />
  <g
     transform="translate(-78.299817,-99.497462)"
     style="display:inline"
     inkscape:label="Layer 2"
     id="layer9"
     inkscape:groupmode="layer" />
  <g
     transform="translate(-78.299817,-99.497462)"
     inkscape:label="pig body"
     id="layer10"
     inkscape:groupmode="layer" />
  <g
     transform="translate(-78.299817,-99.497462)"
     inkscape:label="back hair"
     id="layer7"
     inkscape:groupmode="layer">
    <path
       sodipodi:nodetypes="cssscsssssscsssssscc"
       id="path1182"
       d="m 86.912743,128.98969 c 0,0 -4.27388,12.40065 -5.07941,18.86192 -0.622857,4.99601 -0.956197,6.00185 -0.227429,10.98352 0.968924,6.62332 0.66584,4.5479 2.79858,10.89287 1.16701,3.47188 1.578775,12.65013 1.578775,12.65013 0,0 11.950705,0.72592 15.058281,0.68999 5.89664,-0.0682 9.80037,-4.22878 15.5641,-5.47551 6.31588,-1.36617 7.30224,-3.01707 13.24091,-5.5644 3.49784,-1.50035 10.71814,2.04411 13.81921,-0.16253 2.98534,-2.12429 5.61938,0.0225 8.62815,-2.06846 1.46706,-1.01957 5.72918,0.54516 7.5073,0.37174 2.4888,-0.24273 7.15396,2.25791 7.15396,2.25791 0,0 0.26858,-3.39228 0.41017,-5.08782 0.1752,-2.09803 0.24443,-4.20861 0.54368,-6.29256 0.30837,-2.14746 1.3701,-4.21205 1.28702,-6.37994 -0.17344,-4.52629 -2.04104,-8.86038 -3.69864,-13.07579 -1.3397,-3.40696 -2.79761,-6.85656 -5.00958,-9.77364 -4.07511,-5.37417 -9.65232,-9.44477 -14.84751,-13.74573 -2.42536,-2.0079 -7.59835,-5.61174 -7.59835,-5.61174 -19.51412,-12.95306 -36.59394,-7.71761 -51.129217,16.53004 z"
       style="fill:#000000;stroke:#000000;stroke-width:0.264583px;stroke-linecap:butt;stroke-linejoin:miter;stroke-opacity:1" />
    <ellipse
       ry="4.5977259"
       rx="2.8685153"
       cy="136.4137"
       cx="65.564774"
       id="path1193"
       style="fill:#000000;stroke:none;stroke-width:0.499999;stroke-miterlimit:4;stroke-dasharray:none"
       transform="rotate(-17.605806)" />
  </g>
  <g
     transform="translate(-78.299817,-99.497462)"
     style="display:inline"
     inkscape:label="head layer"
     id="layer2"
     inkscape:groupmode="layer">
    <path
       sodipodi:nodetypes="ssssssssssssssssssssssss"
       id="path882"
       d="m 104.44429,109.32045 c -2.76895,1.31736 -4.556162,4.15058 -6.434054,6.57464 -2.362302,3.04936 -4.466562,6.3581 -5.985663,9.90373 -1.308552,3.0542 -1.89649,6.3747 -2.619679,9.61777 -0.747321,3.35127 -1.243435,6.75455 -1.771972,10.14721 -0.219288,1.40761 -0.552004,2.80987 -0.580321,4.23418 -0.09224,4.63954 0.525776,9.28832 1.340623,13.85667 0.776057,4.35089 1.339415,8.8964 3.364615,12.82464 1.247346,2.41944 2.957286,4.7751 5.232305,6.26972 1.860047,1.222 4.203946,1.55018 6.403226,1.8911 3.65314,0.56628 7.39491,0.39119 11.08801,0.22631 2.89517,-0.12926 5.79101,-0.43093 8.64195,-0.95132 3.4606,-0.63167 6.96778,-1.28848 10.22146,-2.62576 3.95327,-1.62482 8.21777,-3.28484 11.07324,-6.46519 1.72477,-1.92101 2.4032,-4.60217 3.16463,-7.06901 1.17453,-3.80518 1.53225,-7.81885 2.11362,-11.75851 0.48533,-3.28885 1.28216,-6.58566 1.1461,-9.90734 -0.0749,-1.82811 -0.46253,-3.65849 -1.07458,-5.38272 -0.94011,-2.64847 -2.34892,-5.13597 -3.93176,-7.45821 -1.87944,-2.75739 -4.4067,-5.01355 -6.53608,-7.58284 -3.14349,-3.79291 -5.55307,-8.25677 -9.20855,-11.55907 -1.53851,-1.38986 -3.3125,-2.58034 -5.23239,-3.36313 -3.49426,-1.42471 -7.32037,-2.07322 -11.0881,-2.28274 -3.11724,-0.17333 -6.50738,-0.48142 -9.32663,0.85987 z"
       style="fill:#ffaaaa;stroke:#000000;stroke-width:0.264583px;stroke-linecap:butt;stroke-linejoin:miter;stroke-opacity:1" />
    <path
       sodipodi:nodetypes="cssssssssscc"
       id="path884"
       d="m 150.70613,148.84385 c 0,0 1.30915,-2.63592 2.55576,-3.17816 1.12815,-0.49071 2.69125,-0.46178 3.68092,0.26902 1.2804,0.94548 1.53293,2.87006 1.73402,4.44896 0.16231,1.27444 -0.0561,2.60597 -0.45485,3.82726 -0.36033,1.10369 -1.33508,1.9358 -1.70898,3.03497 -0.30098,0.88479 -0.32014,1.84393 -0.39939,2.77514 -0.0989,1.16227 0.33891,2.41501 -0.094,3.49816 -0.34112,0.85344 -1.59397,1.96793 -1.84616,2.04796 -0.25218,0.08 -2.07679,1.29674 -3.19693,1.77896 -1.21436,0.52279 -3.78296,1.19206 -3.78296,1.19206 2.53012,-6.62634 2.71001,-13.14623 3.5126,-19.69433 z"
       style="fill:#ffaaaa;stroke:#000000;stroke-width:0.264583px;stroke-linecap:butt;stroke-linejoin:miter;stroke-opacity:1" />
  </g>
  <g
     transform="translate(-78.299817,-99.497462)"
     inkscape:label="ear shadow"
     id="layer6"
     inkscape:groupmode="layer">
    <path
       sodipodi:nodetypes="csssssssssssssssssc"
       id="path1177"
       d="m 151.81395,153.99899 c 0,0 0.68735,2.10254 0.57742,3.17145 -0.047,0.45758 -0.28684,0.88143 -0.51826,1.27897 -0.27149,0.46635 -0.78216,0.77782 -1.00447,1.26951 -0.17281,0.3822 -0.4486,0.88303 -0.22518,1.23804 0.11263,0.17904 0.40099,0.18166 0.61207,0.1677 0.18052,-0.012 0.35068,-0.10919 0.50002,-0.21113 0.1794,-0.12302 0.34441,-0.28098 0.45355,-0.46912 0.10667,-0.18385 0.0485,-0.44377 0.17798,-0.61233 0.0956,-0.12446 0.24991,-0.27804 0.40304,-0.24353 0.18068,0.0408 0.19692,0.31407 0.30631,0.46353 0.078,0.10657 0.13247,0.24588 0.24891,0.30821 0.19126,0.10242 0.45982,0.16745 0.64811,0.0597 0.30332,-0.17357 0.35023,-0.61274 0.44592,-0.94886 0.10664,-0.37456 0.10055,-0.7726 0.1345,-1.16056 0.0444,-0.50756 0.2286,-1.0354 0.0905,-1.52582 -0.16179,-0.57433 -0.62709,-1.02251 -1.02299,-1.46893 -0.30303,-0.34169 -0.64505,-0.65493 -1.0227,-0.91176 -0.24832,-0.16887 -0.8047,-0.40506 -0.8047,-0.40506 z"
       style="fill:#501616;stroke:none;stroke-width:0.264583px;stroke-linecap:butt;stroke-linejoin:miter;stroke-opacity:1" />
    <path
       sodipodi:nodetypes="csscssssc"
       id="path1179"
       d="m 155.82066,157.23342 c 0,0 -0.70572,-1.38767 -0.69773,-2.13695 0.009,-0.80402 0.77602,-1.47282 0.7974,-2.2766 0.0343,-1.29074 -1.08428,-3.71873 -1.08428,-3.71873 0,0 2.25608,2.04624 2.09071,1.33095 -0.17582,-0.76035 0.37863,1.79434 0.30415,2.69545 -0.0411,0.49743 -0.27515,0.95958 -0.40992,1.44017 -0.15414,0.54962 -0.2438,1.12073 -0.45599,1.65065 -0.14272,0.35643 -0.54434,1.01506 -0.54434,1.01506 z"
       style="fill:#501616;stroke:none;stroke-width:0.264583px;stroke-linecap:butt;stroke-linejoin:miter;stroke-opacity:1" />
  </g>
  <g
     transform="translate(-78.299817,-99.497462)"
     inkscape:label="face layer"
     id="layer3"
     inkscape:groupmode="layer">
    <path
       sodipodi:nodetypes="ccc"
       id="path887"
       d="m 96.378502,140.91931 c 4.481118,0.3579 8.020128,-0.41139 11.545448,-1.19705 -6.35583,-5.06531 -9.252199,-2.59133 -11.545448,1.19705 z"
       style="fill:#e6e6e6;stroke:#000000;stroke-width:0.264583px;stroke-linecap:butt;stroke-linejoin:miter;stroke-opacity:1" />
    <path
       sodipodi:nodetypes="ccc"
       id="path889"
       d="m 123.24315,139.3375 c 1.8059,-4.95935 6.3339,-2.77402 11.21432,0.33633 -4.26149,0.62342 -8.31487,0.95437 -11.21432,-0.33633 z"
       style="fill:#e6e6e6;stroke:#000000;stroke-width:0.264583px;stroke-linecap:butt;stroke-linejoin:miter;stroke-opacity:1" />
    <path
       sodipodi:nodetypes="cssscsssscsssssssc"
       id="path891"
       d="m 102.90059,166.51753 c 0,0 2.35839,-1.89904 3.65618,-2.83465 1.07829,-0.77737 1.95,-1.32342 3.22789,-1.68946 0.91573,-0.26226 2.12541,-0.99745 3.03341,-0.70955 0.47619,0.15099 1.20738,0.88782 1.20738,0.88782 0,0 1.03937,-0.54247 1.60342,-0.67978 0.53629,-0.13052 1.10017,-0.16212 1.65097,-0.12666 0.95007,0.0611 1.87281,0.3501 2.79623,0.58174 1.57481,0.39502 3.23045,0.62977 4.67234,1.3761 0.92753,0.48009 2.45815,1.94284 2.45815,1.94284 0,0 -2.50003,-1.269 -3.80582,-1.77223 -0.91661,-0.35325 -1.86127,-0.63708 -2.81544,-0.87055 -1.27695,-0.31243 -2.56551,-0.71446 -3.8801,-0.70623 -1.16705,0.007 -2.27291,0.58009 -3.43651,0.67002 -0.75094,0.058 -1.52076,-0.24122 -2.25788,-0.0865 -0.81352,0.17076 -1.48887,0.74015 -2.24318,1.08942 -0.95441,0.44193 -1.94532,0.80474 -2.88725,1.27268 -1.01754,0.5055 -2.97979,1.65498 -2.97979,1.65498 z"
       style="fill:#800000;stroke:#000000;stroke-width:0.264583px;stroke-linecap:butt;stroke-linejoin:miter;stroke-opacity:1" />
    <path
       sodipodi:nodetypes="cssssscssssssc"
       id="path893"
       d="m 105.45835,165.30702 c 0,0 4.0613,-1.3833 6.17549,-1.64352 0.63378,-0.078 1.28601,0.13656 1.91546,0.0291 0.61249,-0.10455 1.13156,-0.57457 1.7489,-0.64499 1.84863,-0.21089 3.70539,0.3778 5.53749,0.70229 0.95485,0.16911 1.88842,0.44227 2.83618,0.64745 0.86865,0.18806 2.61213,0.53486 2.61213,0.53486 0,0 -2.28215,-1.22373 -3.49315,-1.66994 -0.86977,-0.32048 -1.78026,-0.52393 -2.68724,-0.71518 -1.18763,-0.25044 -2.38419,-0.60386 -3.59729,-0.56411 -0.85646,0.0281 -1.65685,0.46628 -2.50821,0.56365 -0.95022,0.10862 -1.93618,-0.19139 -2.86919,0.0189 -0.83673,0.18862 -1.55855,0.71694 -2.33155,1.08865 -1.11921,0.53821 -3.33902,1.65279 -3.33902,1.65279 z"
       style="fill:#800000;stroke:#000000;stroke-width:0.264583px;stroke-linecap:butt;stroke-linejoin:miter;stroke-opacity:1" />
    <path
       sodipodi:nodetypes="cc"
       id="path895"
       d="m 101.1893,146.13007 c 3.14256,-1.6865 4.86094,-3.94038 6.61968,-6.17819"
       style="fill:none;stroke:#000000;stroke-width:0.264583px;stroke-linecap:butt;stroke-linejoin:miter;stroke-opacity:1" />
    <path
       sodipodi:nodetypes="cc"
       id="path897"
       d="m 126.17099,143.23571 c -1.68968,-0.96094 -2.28398,-2.44471 -3.16851,-3.78995"
       style="fill:none;stroke:#000000;stroke-width:0.264583px;stroke-linecap:butt;stroke-linejoin:miter;stroke-opacity:1" />
    <path
       sodipodi:nodetypes="ssssscssssss"
       id="path899"
       d="m 119.98149,132.31947 c -0.15543,-0.8388 0.62495,-1.14077 1.32062,-1.63451 0.82663,-0.58668 2.02086,-1.03615 3.01724,-1.22252 1.50554,-0.2816 3.02123,-0.68794 4.55172,-0.6286 1.66692,0.0646 3.36999,0.37817 4.88957,1.0664 1.51801,0.6875 4.02245,2.96865 4.02245,2.96865 0,0 -1.81445,-0.86882 -2.78241,-1.11818 -1.24185,-0.31992 -2.56689,-0.74083 -3.84392,-0.85802 -1.28933,-0.11832 -2.56137,0.0455 -3.85166,0.15294 -1.06491,0.0886 -2.10341,0.40333 -3.12356,0.72143 -1.10183,0.34335 -2.0739,1.42472 -3.21841,1.27633 -0.40318,-0.0523 -0.90756,-0.32416 -0.98164,-0.72392 z"
       style="fill:#999999;stroke:none;stroke-width:0.264583px;stroke-linecap:butt;stroke-linejoin:miter;stroke-opacity:1" />
    <path
       sodipodi:nodetypes="ccssscssssc"
       id="path901"
       d="m 108.56161,130.67214 c -0.14444,0.46534 -0.20876,0.90525 -1.05956,1.59473 0,0 -1.77953,-0.78958 -2.73162,-0.91298 -1.64735,-0.2135 -3.34482,-0.007 -4.972924,0.3226 -1.127668,0.22827 -2.243629,0.59472 -3.260124,1.13368 -1.226737,0.65044 -3.340189,2.48891 -3.340189,2.48891 0,0 0.648179,-1.61323 1.184629,-2.2814 0.703288,-0.87598 1.628398,-1.57314 2.584604,-2.16274 1.075775,-0.66333 2.078274,-0.90321 3.326284,-1.10264 1.22464,-0.19569 2.7348,-0.18619 3.96004,0.006 1.48806,0.23306 4.30886,0.91414 4.30886,0.91414 z"
       style="fill:#999999;stroke:none;stroke-width:0.264583px;stroke-linecap:butt;stroke-linejoin:miter;stroke-opacity:1" />
    <path
       sodipodi:nodetypes="ccccc"
       id="path903"
       d="m 98.800218,138.02938 c 0.172353,1.04216 0.592773,2.04422 1.602842,2.95089 l 2.71614,-0.34865 c 0.7392,-1.38342 0.43612,-2.39507 0.17698,-3.5348 -1.68598,-0.43918 -3.2301,-0.31036 -4.495962,0.93256 z"
       style="fill:#000000;stroke:#000000;stroke-width:0.264583px;stroke-linecap:butt;stroke-linejoin:miter;stroke-opacity:1" />
    <path
       sodipodi:nodetypes="ccccc"
       id="path905"
       d="m 125.27259,136.74603 c -0.29733,1.11771 -0.26875,2.23534 0.41213,3.35284 l 2.98518,0.14919 c 0.7223,-1.09123 1.02983,-2.20978 0.40763,-3.38955 -1.36743,-0.59471 -2.61153,-0.49606 -3.80494,-0.11248 z"
       style="fill:#000000;stroke:#000000;stroke-width:0.264583px;stroke-linecap:butt;stroke-linejoin:miter;stroke-opacity:1" />
    <path
       sodipodi:nodetypes="sssssssssssssss"
       id="path1149"
       d="m 112.41879,156.51327 c 0.64514,-0.36018 0.74863,-0.95097 1.45238,-1.17609 0.50785,-0.16221 1.08235,-0.0499 1.59686,0.0897 0.53407,0.14494 0.94746,0.59761 1.4772,0.75765 1.28097,0.38697 2.67419,0.70143 3.9889,0.45208 0.76152,-0.1444 1.64221,-0.4331 2.05414,-1.08968 0.82715,-1.31835 0.78733,-3.23468 0.17555,-4.66573 -1.00428,-2.34919 -3.36364,-4.13521 -5.73583,-5.08386 -1.44872,-0.57935 -3.1522,-0.49369 -4.67783,-0.16676 -1.3489,0.28905 -2.58582,1.033 -3.71235,1.82924 -1.13189,0.80002 -2.4467,1.62235 -2.97729,2.90284 -0.53998,1.30311 -0.60169,2.98164 0.0524,4.23137 0.54597,1.04309 1.7584,1.6819 2.87715,2.0487 0.72968,0.23923 1.13494,0.43826 1.90238,0.46478 0.28275,0.01 1.5263,-0.59422 1.5263,-0.59422 z"
       style="fill:none;stroke:#000000;stroke-width:0.264583px;stroke-linecap:butt;stroke-linejoin:miter;stroke-opacity:1" />
    <ellipse
       ry="1.9464937"
       rx="1.8893025"
       cy="178.29979"
       cx="59.722576"
       id="path1151"
       style="fill:#000000;stroke:#000000;stroke-width:0.499999;stroke-miterlimit:4;stroke-dasharray:none"
       transform="rotate(-17.605806)" />
    <ellipse
       style="fill:#000000;stroke:#000000;stroke-width:0.499999;stroke-miterlimit:4;stroke-dasharray:none"
       id="path1151-3"
       cx="67.038071"
       cy="180.67984"
       rx="1.8893025"
       ry="1.9464937"
       transform="rotate(-17.605806)" />
    <path
       sodipodi:nodetypes="ccc"
       id="path1168"
       d="m 122.63555,149.50296 c 2.49519,5.07418 4.84824,10.20189 5.48491,15.38396 1.43359,2.30583 2.49583,4.64079 3.18704,7.00484"
       style="fill:none;stroke:#000000;stroke-width:0.264583px;stroke-linecap:butt;stroke-linejoin:miter;stroke-opacity:1" />
    <path
       sodipodi:nodetypes="ccc"
       id="path1170"
       d="m 105.98548,154.88009 c -2.81135,2.64395 -6.144326,4.93343 -3.784,11.68001 -1.03704,1.93246 -1.54789,3.85345 -1.25495,5.75694"
       style="fill:none;stroke:#000000;stroke-width:0.264583px;stroke-linecap:butt;stroke-linejoin:miter;stroke-opacity:1" />
    <path
       sodipodi:nodetypes="cc"
       id="path1172"
       d="m 95.044737,140.80042 c 2.739526,-4.04364 6.265633,-8.13446 12.325733,-2.21034"
       style="fill:none;stroke:#000000;stroke-width:0.264583px;stroke-linecap:butt;stroke-linejoin:miter;stroke-opacity:1" />
    <path
       sodipodi:nodetypes="cc"
       id="path1174"
       d="m 122.69976,139.08523 c 2.16632,-5.29256 6.89453,-4.36162 13.0952,0.14632"
       style="fill:none;stroke:#000000;stroke-width:0.264583px;stroke-linecap:butt;stroke-linejoin:miter;stroke-opacity:1" />
  </g>
  <g
     transform="translate(-78.299817,-99.497462)"
     inkscape:label="front hair"
     id="layer4"
     inkscape:groupmode="layer">
    <path
       sodipodi:nodetypes="ccsssssscsssc"
       id="path908"
       d="m 105.10726,111.18256 -2.91573,-6.15434 c 0,0 5.58569,-2.89122 8.16958,-3.91508 4.7274,-1.873197 8.47389,-1.71426 13.49914,-0.93706 5.47759,0.84717 10.62501,2.02947 15.34839,4.92972 5.33672,3.27685 10.66876,6.94611 14.60702,11.81525 4.20256,5.19591 8.41398,11.2283 9.0711,17.87866 0.35424,3.58507 -1.4251,7.12605 -2.90925,10.40865 -1.25756,2.78145 -4.9932,7.67653 -4.9932,7.67653 0,0 -3.38926,-7.77376 -5.54669,-11.41148 -3.74213,-6.3097 -8.03391,-12.31975 -12.7548,-17.93482 -3.61867,-4.30408 -6.69503,-9.77894 -11.86415,-11.99255 -6.04097,-2.58697 -19.71141,-0.36348 -19.71141,-0.36348 z"
       style="fill:#000000;stroke:#000000;stroke-width:0.264583px;stroke-linecap:butt;stroke-linejoin:miter;stroke-opacity:1" />
    <path
       sodipodi:nodetypes="ccssscssc"
       id="path910"
       d="m 104.30636,111.4397 -2.85287,-6.08485 c 0,0 -5.07427,4.83386 -6.737777,6.71437 -4.775423,5.39837 -8.583391,12.89859 -11.453667,21.12529 -2.174887,6.2336 -3.289029,9.97071 -3.892986,16.54514 -0.273362,2.9757 -0.937738,9.03976 -0.937738,9.03976 0,0 3.273279,-6.2017 4.765301,-9.3733 2.976209,-6.32655 4.968177,-13.1211 8.343303,-19.24413 3.646382,-6.61515 12.766434,-18.72228 12.766434,-18.72228 z"
       style="fill:#000000;stroke:#000000;stroke-width:0.264583px;stroke-linecap:butt;stroke-linejoin:miter;stroke-opacity:1" />
  </g>
  <g
     transform="translate(-78.299817,-99.497462)"
     inkscape:label="glass  layer"
     id="layer5"
     inkscape:groupmode="layer">
    <path
       sodipodi:nodetypes="ssssssssssssssssssss"
       id="path913"
       d="m 90.053436,136.90386 c 0.199956,-0.62992 0.473174,-1.29736 0.976714,-1.7254 0.430958,-0.36635 1.048387,-0.4311 1.592034,-0.58725 1.362896,-0.39136 2.756056,-0.70197 4.164081,-0.86964 0.892882,-0.10633 1.797074,-0.0879 2.696262,-0.0841 1.711923,0.007 3.443613,-0.0805 5.131783,0.20377 1.15689,0.19483 2.33055,0.47314 3.36854,1.01987 0.74896,0.39448 1.56258,0.85261 1.98167,1.58808 0.49002,0.85993 0.57552,1.96305 0.4163,2.93992 -0.20249,1.24249 -0.90539,2.39278 -1.68939,3.37774 -0.63049,0.79214 -1.46208,1.43343 -2.34243,1.93341 -1.14494,0.65027 -2.45741,0.95499 -3.72004,1.32849 -1.01567,0.30048 -2.04677,0.56148 -3.092256,0.73124 -1.098931,0.17842 -2.213447,0.27654 -3.326541,0.29914 -0.590314,0.012 -1.208319,0.0977 -1.769178,-0.0869 -0.549576,-0.18082 -1.001273,-0.59012 -1.445465,-0.96083 -0.612962,-0.51156 -1.164511,-1.10034 -1.661346,-1.72529 -0.462503,-0.58177 -0.963255,-1.16994 -1.216002,-1.86886 -0.322994,-0.89317 -0.324709,-1.88006 -0.333023,-2.8298 -0.0079,-0.89898 -0.0037,-1.82678 0.268287,-2.68366 z"
       style="fill:none;stroke:#000000;stroke-width:0.264583px;stroke-linecap:butt;stroke-linejoin:miter;stroke-opacity:1" />
    <path
       sodipodi:nodetypes="ssssssssssssssssssssssssssss"
       id="path915"
       d="m 121.74267,133.91153 c 0.75042,-0.31871 1.54277,-0.53269 2.33132,-0.7398 0.8609,-0.22608 1.73385,-0.41193 2.61362,-0.54705 0.92391,-0.1419 1.85661,-0.23881 2.79062,-0.27567 1.19277,-0.0471 2.39143,-0.0361 3.58039,0.0701 0.99191,0.0886 1.99058,0.20522 2.95012,0.47171 0.61267,0.17016 1.18902,0.4531 1.76919,0.71332 0.37584,0.16857 0.81418,0.25917 1.10728,0.54858 0.32068,0.31663 0.47539,0.7754 0.61554,1.2037 0.20739,0.63373 0.32478,1.30814 0.31826,1.97492 -0.006,0.63053 -0.20524,1.24481 -0.33724,1.86141 -0.12935,0.60419 -0.20324,1.23086 -0.44525,1.79938 -0.33051,0.77646 -0.83612,1.47226 -1.34973,2.14185 -0.39889,0.52003 -0.8106,1.05036 -1.33498,1.44353 -0.34841,0.26122 -0.75754,0.44082 -1.16927,0.58259 -0.73005,0.25139 -1.50676,0.34401 -2.26974,0.46242 -0.90061,0.13977 -1.81082,0.21036 -2.71856,0.29186 -0.8373,0.0752 -1.6751,0.15801 -2.51543,0.18177 -0.6974,0.0197 -1.39678,0.0158 -2.09278,-0.0327 -0.4314,-0.03 -0.86828,-0.0534 -1.28749,-0.15958 -0.52068,-0.13185 -1.02831,-0.33116 -1.50072,-0.58675 -0.57634,-0.31182 -1.08589,-0.73577 -1.60091,-1.14093 -0.4298,-0.33812 -0.92047,-0.63043 -1.23989,-1.07429 -0.65465,-0.90967 -1.03929,-2.01435 -1.28061,-3.1088 -0.14055,-0.63729 -0.15794,-1.30748 -0.0848,-1.95597 0.0643,-0.57003 0.24423,-1.12627 0.45576,-1.6595 0.1965,-0.49538 0.37338,-1.03424 0.74857,-1.41273 0.51943,-0.52399 1.2676,-0.765 1.9467,-1.05343 z"
       style="fill:none;stroke:#000000;stroke-width:0.264583px;stroke-linecap:butt;stroke-linejoin:miter;stroke-opacity:1" />
    <path
       sodipodi:nodetypes="cc"
       id="path917"
       d="m 110.37052,137.92019 c 3.01198,-1.88183 5.66373,-1.23897 8.28841,-0.40651"
       style="fill:none;stroke:#000000;stroke-width:0.264583px;stroke-linecap:butt;stroke-linejoin:miter;stroke-opacity:1" />
    <path
       id="path919"
       d="m 139.81038,136.6084 2.12119,-0.37823 10.08201,4.04321"
       style="fill:none;stroke:#000000;stroke-width:0.5;stroke-linecap:butt;stroke-linejoin:miter;stroke-miterlimit:4;stroke-dasharray:none;stroke-opacity:1" />
    <path
       id="path921"
       d="m 89.790665,138.38975 -2.518378,-0.40063 -1.476991,3.0675"
       style="fill:none;stroke:#000000;stroke-width:0.5;stroke-linecap:butt;stroke-linejoin:miter;stroke-miterlimit:4;stroke-dasharray:none;stroke-opacity:1" />
  </g>
  <g
     transform="translate(-78.299817,-99.497462)"
     inkscape:label="text layer"
     id="layer8"
     inkscape:groupmode="layer" />
</svg>
